:version 1.10
:name ASF
:units
  mass 1
  length 1
  angle deg
:documentation
  ASF file generated by Kaydara
:root
  axis xyz
  order  tx ty tz rx ry rz
  position 0 0 0
  orientation 0 0 0
:bonedata
  begin
    id 1
    name RightUpLegDummy
    direction -1 2.30186e-007 8.31532e-007
    length 4.46685
    axis 0 0 0 xyz
  end
  begin
    id 2
    name RightUpLeg
    direction -2.30187e-007 -1 1.24343e-010
    length 16.4045
    axis -3.49089 -0.000906625 0.000286804 xyz
    dof rx ry rz
  end
  begin
    id 3
    name RightLeg
    direction -2.30181e-007 -1 -4.17157e-009
    length 17.5097
    axis 3.68512 0.0193738 -0.131023 xyz
    dof rx ry rz
  end
  begin
    id 4
    name RightFoot
    direction 8.31421e-007 -4.51202e-011 1
    length 6.49508
    axis 4.81691e-005 -0.120479 -0.188788 xyz
    dof rx ry rz
  end
  begin
    id 5
    name RightToes
    direction 0.00124746 -0.014064 0.9999
    length 3.85082
    axis 0.000481921 0.542163 -0.142578 xyz
    dof rx ry rz
  end
  begin
    id 6
    name SpineDummy
    direction 0.0717043 0.9409 -0.331007
    length 10.0032
    axis 0 0 0 xyz
  end
  begin
    id 7
    name Spine
    direction 2.30186e-007 1 4.58806e-011
    length 9.84055
    axis -0.001389 0.000121418 2.40972e-006 xyz
    dof rx ry rz
  end
  begin
    id 8
    name Spine1
    direction 0 0 0
    length 0
    axis -0.001389 0.000121451 1.30017e-006 xyz
    dof rx ry rz
  end
  begin
    id 9
    name HEadDummy
    direction -0.00347485 0.950688 -0.310128
    length 8.00997
    axis -0.001389 0.000121451 1.30017e-006 xyz
  end
  begin
    id 10
    name HEad
    direction -0.0222688 0.980941 0.193023
    length 5.12695
    axis -0.001389 0.000121451 1.30017e-006 xyz
    dof rx ry rz
  end
  begin
    id 11
    name LeftShoulder1Dummy
    direction 0.988871 0.146793 -0.0242004
    length 3.5792
    axis -0.001389 0.000121451 1.30017e-006 xyz
  end
  begin
    id 12
    name LeftShoulder1
    direction 0.993832 0.108932 0.020779
    length 4.16823
    axis -0.001389 0.000121451 1.30017e-006 xyz
    dof rx ry rz
  end
  begin
    id 13
    name LeftArm
    direction 1 3.44807e-006 -8.31404e-007
    length 9.91437
    axis -23.1894 0.134784 0.967509 xyz
    dof rx ry rz
  end
  begin
    id 14
    name LeftForeArm
    direction 1 3.44842e-006 -8.31581e-007
    length 9.08575
    axis -9.91835 -0.06569 -0.177793 xyz
    dof rx ry rz
  end
  begin
    id 15
    name LeftHand
    direction 0.992938 -0.0411636 0.11126
    length 5.32135
    axis -0.00960232 -0.00340091 0.185173 xyz
    dof rx ry rz
  end
  begin
    id 16
    name RightShoulderDummy
    direction -0.988871 0.146793 -0.0241962
    length 3.5792
    axis -0.001389 0.000121451 1.30017e-006 xyz
  end
  begin
    id 17
    name RightShoulder
    direction -0.993832 0.108933 0.0207785
    length 4.16823
    axis 0.215806 0.000203643 -0.0068026 xyz
    dof rx ry rz
  end
  begin
    id 18
    name RightArm
    direction -1 3.90912e-006 8.31284e-007
    length 9.91437
    axis -23.2009 -0.134239 -0.964101 xyz
    dof rx ry rz
  end
  begin
    id 19
    name RightForeArm
    direction -1 3.90882e-006 8.31502e-007
    length 9.08575
    axis -9.92322 0.0658061 0.178867 xyz
    dof rx ry rz
  end
  begin
    id 20
    name RightHand
    direction -0.992843 -0.0414603 0.112003
    length 5.28593
    axis -0.00960638 0.00330671 -0.185228 xyz
    dof rx ry rz
  end
  begin
    id 21
    name LeftUpLegDummy
    direction 1 -2.30186e-007 -8.31532e-007
    length 4.46685
    axis 0 0 0 xyz
  end
  begin
    id 22
    name LeftUpLeg
    direction -2.30187e-007 -1 6.00931e-010
    length 16.4045
    axis -3.48766 0.00143442 -0.000524262 xyz
    dof rx ry rz
  end
  begin
    id 23
    name LeftLeg
    direction -2.30187e-007 -1 1.6669e-009
    length 17.5097
    axis 3.68178 -0.00654042 -0.000285133 xyz
    dof rx ry rz
  end
  begin
    id 24
    name LeftFoot
    direction 8.31532e-007 -4.54478e-011 1
    length 6.49508
    axis 1.87233e-006 4.66016e-005 -8.6538e-006 xyz
    dof rx ry rz
  end
  begin
    id 25
    name LeftToes
    direction 0.00818058 -0.00485161 0.999955
    length 3.85048
    axis 1.06247e-005 4.65869e-005 -8.65513e-006 xyz
    dof rx ry rz
  end
:hierarchy
  begin
    root RightUpLegDummy SpineDummy LeftUpLegDummy
    RightUpLegDummy RightUpLeg
    RightUpLeg RightLeg
    RightLeg RightFoot
    RightFoot RightToes
    SpineDummy Spine
    Spine Spine1
    Spine1 HEadDummy LeftShoulder1Dummy RightShoulderDummy
    HEadDummy HEad
    LeftShoulder1Dummy LeftShoulder1
    LeftShoulder1 LeftArm
    LeftArm LeftForeArm
    LeftForeArm LeftHand
    RightShoulderDummy RightShoulder
    RightShoulder RightArm
    RightArm RightForeArm
    RightForeArm RightHand
    LeftUpLegDummy LeftUpLeg
    LeftUpLeg LeftLeg
    LeftLeg LeftFoot
    LeftFoot LeftToes
  end

:SAMPLES-PER-SECOND 30
:FULLY-SPECIFIED
:DEGREES
48
root  -0.642194 34.0329 0.37892 179.982 -4.45644 178.959
RightUpLeg  4.48248 -4.64443 -1.34965
RightLeg  3.34764 -2.06537 0.0131536
RightFoot  3.81685 0.0303485 -0.157219
RightToes  -27.4453 -0.129669 -0.23654
Spine  1.60039 -2.02338 -1.22103
Spine1  3.24038 -4.0007 -2.58544
HEad  19.0455 -1.61193 11.0553
LeftShoulder1  0 -2.42657e-020 -4.95415e-022
LeftArm  -73.4091 9.95815 -7.03906
LeftForeArm  55.9469 -19.399 -3.5171
LeftHand  0.409503 -5.74131 -8.53296
RightShoulder  0 2.42657e-020 1.07489e-018
RightArm  -75.6691 -13.1872 7.80969
RightForeArm  54.9938 12.6482 2.23184
RightHand  -0.93917 18.4895 -5.39716
LeftUpLeg  3.32025 4.67797 0.584689
LeftLeg  3.17015 -11.4879 0.101538
LeftFoot  4.05865 0.0357361 -0.851542
LeftToes  -7.82919 2.37847e-007 4.89147e-008
49
root  -0.654292 34.0334 0.392223 -179.961 -4.44862 178.962
RightUpLeg  4.23702 -5.04883 -1.42493
RightLeg  3.6679 -1.66501 0.0015242
RightFoot  3.70756 0.0288753 -0.126561
RightToes  -27.4743 -0.129668 -0.236513
Spine  1.62592 -1.98039 -1.23492
Spine1  3.29167 -3.9124 -2.61222
HEad  18.9391 -1.81392 11.1952
LeftShoulder1  0 -2.42657e-020 -4.95415e-022
LeftArm  -73.1542 9.58114 -7.03736
LeftForeArm  55.9382 -19.3199 -3.50146
LeftHand  0.409446 -5.92722 -8.27592
RightShoulder  0 2.42657e-020 1.07489e-018
RightArm  -75.1894 -13.1132 7.88657
RightForeArm  54.7365 12.6778 2.23781
RightHand  -0.906472 18.2566 -5.26885
LeftUpLeg  3.26141 4.56478 0.544
LeftLeg  3.13618 -11.3575 0.10709
LeftFoot  4.09357 0.0358663 -0.853566
LeftToes  -7.85035 2.37847e-007 4.89147e-008
50
root  -0.668091 34.0339 0.404685 -179.91 -4.46779 178.966
RightUpLeg  4.16293 -5.0571 -1.43992
RightLeg  3.68028 -1.66788 0.00116723
RightFoot  3.72122 0.0292994 -0.126191
RightToes  -27.4635 -0.129714 -0.236559
Spine  1.63766 -1.95681 -1.24585
Spine1  3.31518 -3.86362 -2.63086
HEad  18.9258 -1.98984 11.1984
LeftShoulder1  0 -2.42657e-020 -4.95415e-022
LeftArm  -73.2471 9.26396 -7.01666
LeftForeArm  56.1941 -19.185 -3.47425
LeftHand  0.410691 -5.95443 -8.26365
RightShoulder  0 2.42657e-020 1.07489e-018
RightArm  -75.1412 -13.048 7.97798
RightForeArm  54.9532 12.7902 2.25816
RightHand  -0.901761 18.264 -5.23728
LeftUpLeg  3.20734 4.56051 0.519951
LeftLeg  3.09718 -11.3771 0.114973
LeftFoot  4.09208 0.0358518 -0.85334
LeftToes  -7.70052 2.37847e-007 4.89147e-008
51
root  -0.685669 34.0344 0.417965 -179.82 -4.55669 178.971
RightUpLeg  4.10083 -5.15072 -1.46172
RightLeg  3.60832 -1.66694 0.00114665
RightFoot  3.78481 0.0297241 -0.126758
RightToes  -27.4644 -0.129798 -0.236674
Spine  1.64239 -1.95694 -1.25941
Spine1  3.32503 -3.86252 -2.65548
HEad  18.7287 -2.10144 11.2418
LeftShoulder1  0 -2.42657e-020 -4.95415e-022
LeftArm  -73.0205 9.05625 -6.99866
LeftForeArm  56.1439 -19.0458 -3.44687
LeftHand  0.421581 -6.05757 -8.33433
RightShoulder  0 2.42657e-020 1.07489e-018
RightArm  -75.3307 -13.0872 8.1222
RightForeArm  55.1353 12.8851 2.27534
RightHand  -0.915077 18.4215 -5.2705
LeftUpLeg  3.08051 4.53157 0.486178
LeftLeg  3.10102 -11.431 0.11475
LeftFoot  4.11699 0.035693 -0.850872
LeftToes  -7.64182 2.37847e-007 4.89147e-008
52
root  -0.707428 34.0347 0.431203 -179.728 -4.65704 178.98
RightUpLeg  4.06103 -5.2454 -1.48682
RightLeg  3.49879 -1.67034 0.00165703
RightFoot  3.86303 0.0301148 -0.127828
RightToes  -27.5438 -0.129912 -0.236854
Spine  1.64251 -1.97007 -1.26929
Spine1  3.32581 -3.88786 -2.67351
HEad  18.538 -2.33118 11.3849
LeftShoulder1  0 -2.42657e-020 -4.95415e-022
LeftArm  -73.1175 8.89284 -7.0314
LeftForeArm  56.2765 -18.9042 -3.4187
LeftHand  0.417986 -6.11068 -8.19803
RightShoulder  0 2.42657e-020 1.07489e-018
RightArm  -75.3461 -13.172 8.28169
RightForeArm  55.1387 12.9678 2.29065
RightHand  -0.92873 18.3952 -5.36285
LeftUpLeg  2.94275 4.50218 0.450186
LeftLeg  3.12738 -11.4915 0.110096
LeftFoot  4.11932 0.0353905 -0.846171
LeftToes  -7.59502 2.37847e-007 4.89147e-008
53
root  -0.734728 34.0351 0.448971 -179.637 -4.71544 178.987
RightUpLeg  3.99575 -5.22446 -1.51044
RightLeg  3.41548 -1.73367 0.00990784
RightFoot  3.9314 0.030449 -0.129157
RightToes  -27.7179 -0.130048 -0.237094
Spine  1.64445 -1.98179 -1.28145
Spine1  3.33037 -3.91058 -2.69585
HEad  18.3489 -2.91013 11.4621
LeftShoulder1  0 -2.42657e-020 -4.95415e-022
LeftArm  -73.073 8.84768 -7.12927
LeftForeArm  56.0679 -18.8781 -3.414
LeftHand  0.423872 -6.03081 -8.41301
RightShoulder  0 2.42657e-020 1.07489e-018
RightArm  -75.2457 -13.2489 8.47091
RightForeArm  55.3109 12.9829 2.2931
RightHand  -0.917488 18.2283 -5.34625
LeftUpLeg  2.7763 4.40074 0.391434
LeftLeg  3.21324 -11.437 0.0925419
LeftFoot  4.08611 0.0346561 -0.834757
LeftToes  -7.56692 2.37847e-007 4.89147e-008
